<?xml version="1.0" encoding="UTF-8" standalone="no"?>
<svg
   xmlns:dc="http://purl.org/dc/elements/1.1/"
   xmlns:cc="http://creativecommons.org/ns#"
   xmlns:rdf="http://www.w3.org/1999/02/22-rdf-syntax-ns#"
   xmlns:svg="http://www.w3.org/2000/svg"
   xmlns="http://www.w3.org/2000/svg"
   viewBox="0 0 458.20001 86.933334"
   height="86.933334"
   width="458.20001"
   xml:space="preserve"
   id="svg2"
   version="1.1"><metadata
     id="metadata8"><rdf:RDF><cc:Work
         rdf:about=""><dc:format>image/svg+xml</dc:format><dc:type
           rdf:resource="http://purl.org/dc/dcmitype/StillImage" /></cc:Work></rdf:RDF></metadata><defs
     id="defs6" /><g
     transform="matrix(1.3333333,0,0,-1.3333333,0,86.933333)"
     id="g10"><g
       transform="scale(0.1)"
       id="g12"><path
         id="path14"
         style="fill:#4f4c4c;fill-opacity:1;fill-rule:nonzero;stroke:none"
         d="m 330.754,269.727 v 18.601 c 0,64.203 -15.754,105.61 -51.004,134.406 -24.75,20.403 -66.754,32.395 -111,32.395 -51,0 -89.2461,-13.195 -120.7539,-41.399 C 14.2461,383.73 0,347.129 0,291.934 0,195.332 71.25,132.93 181.5,132.93 c 53.996,0 100.504,13.8 144.75,42.597 l -39,48.008 c -30.75,-20.398 -63.004,-30.605 -97.5,-30.605 -51.754,0 -81,27.004 -81,74.406 v 2.391 z M 226.5,328.535 H 110.25 v 1.192 c 0,42.609 21.754,66.601 60,66.601 20.246,0 34.5,-5.996 44.254,-18 C 223.5,366.934 226.5,354.934 226.5,332.129 Z M 744.75,141.328 594,320.129 716.25,448.535 H 595.496 l -98.246,-133.203 129,-174.004 z m -249.75,0 v 346.203 c 0,40.797 -1.5,76.797 -6,99.598 L 387.75,567.336 c 6,-31.809 6.754,-52.805 6.754,-79.805 V 141.328 Z m 579,55.801 H 897.75 l 169.5,196.199 v 55.207 h -285 V 392.129 H 947.996 L 767.25,191.133 V 141.328 H 1050 Z m 787.02,-61.797 c 39.59,0 80.39,10.801 109.79,29.395 v 186.601 h -133.19 l 6.59,-28.191 h 94.2 V 182.734 c -19.8,-12.605 -46.8,-18.601 -74.41,-18.601 -41.99,0 -83.99,16.797 -106.19,49.195 -18.6,27.602 -30.6,75.61 -30.6,131.399 0,45 8.4,86.406 22.2,117.609 18,43.191 57,67.195 103.79,67.195 33.62,0 60,-9.004 91.21,-30.593 l 15,21.589 c -29.4,24.602 -64.8,36.602 -106.79,36.602 -45,0 -82.21,-17.402 -109.21,-47.996 -34.8,-37.199 -52.8,-91.797 -52.8,-163.203 0,-67.2 15.6,-119.395 45,-155.403 31.21,-37.793 74.4,-55.195 125.41,-55.195 m 215.99,5.996 h 32.4 V 338.73 c 0,24.004 4.8,34.805 20.39,50.403 15.61,15.594 33.61,22.801 52.21,22.801 4.8,0 10.2,-1.2 13.2,-2.403 l 13.2,34.797 c -0.6,0.606 -8.4,3.008 -16.2,3.008 -16.8,0 -33.6,-5.402 -51,-18.606 -12.6,-9.003 -24,-20.996 -32.4,-33.601 1.2,30.605 -7.2,47.402 -9.01,50.398 l -32.39,-8.398 c 1.8,-3.594 9.6,-20.399 9.6,-60 z m 385.8,-9.598 21.6,21.598 c -11.4,12.602 -16.2,26.399 -16.2,62.406 V 443.73 l -32.4,-5.402 V 215.129 c -20.4,-34.199 -52.8,-53.996 -84,-53.996 -16.2,0 -31.2,5.402 -40.8,13.195 -13.2,10.203 -18.6,25.203 -18.6,51.004 v 219.602 l -31.8,-6.606 V 215.734 c 0,-19.199 4.2,-36.007 12,-47.406 11.4,-20.992 35.4,-34.793 70.2,-34.793 39.6,0 72.6,16.797 96,47.395 3,-23.399 9.6,-35.996 24,-49.2 m 117,-113.9956 32.4,6.5937 V 171.934 c 20.4,-23.399 52.2,-37.207 82.8,-37.207 39,0 70.2,19.211 91.8,54.003 15,24.598 23.4,55.208 23.4,103.204 0,53.398 -10.2,89.394 -32.4,117.004 -19.2,23.992 -48.6,36.589 -78.6,36.589 -34.2,0 -65.4,-16.199 -88.8,-45 0,29.407 -3,42.61 -4.2,45 l -33.6,-5.996 c 1.8,-2.996 7.2,-19.199 7.2,-60 z m 109.8,143.9956 c -27,0 -56.4,14.403 -77.4,41.407 V 371.73 c 22.8,29.403 52.2,44.403 83.4,44.403 24.6,0 48.6,-12 61.2,-32.996 12,-20.403 19.2,-54.602 19.2,-94.809 0,-37.801 -6.6,-65.992 -16.2,-85.191 -13.2,-25.207 -39.6,-41.407 -70.2,-41.407 m 211.72,-143.9956 32.4,6.5937 V 171.934 c 20.4,-23.399 52.2,-37.207 82.8,-37.207 39,0 70.2,19.211 91.8,54.003 15,24.598 23.4,55.208 23.4,103.204 0,53.398 -10.2,89.394 -32.4,117.004 -19.2,23.992 -48.6,36.589 -78.6,36.589 -34.2,0 -65.4,-16.199 -88.8,-45 0,29.407 -3,42.61 -4.2,45 l -33.6,-5.996 c 1.8,-2.996 7.2,-19.199 7.2,-60 z m 109.8,143.9956 c -27,0 -56.4,14.403 -77.4,41.407 V 371.73 c 22.8,29.403 52.2,44.403 83.4,44.403 24.6,0 48.6,-12 61.2,-32.996 12,-20.403 19.2,-54.602 19.2,-94.809 0,-37.801 -6.6,-65.992 -16.2,-85.191 -13.2,-25.207 -39.6,-41.407 -70.2,-41.407 m 323.39,-26.398 c 38.4,0 70.2,12.004 95.4,33.606 l -13.2,20.996 c -20.4,-18.606 -45.6,-27.004 -75.6,-27.004 -33.6,0 -60.6,13.203 -76.8,37.199 -11.4,16.805 -18.6,41.406 -19.8,73.199 -0.6,5.402 0,16.801 0,16.801 h 192 v 6.601 c 0,67.208 -11.4,95.399 -34.2,119.403 -18,18 -43.2,30.597 -75,30.597 -36.6,0 -64.2,-16.203 -84.61,-40.195 -23.99,-28.207 -35.39,-62.402 -35.39,-113.398 0,-94.199 45,-157.805 127.2,-157.805 m -90,179.395 c 3,70.8 36,106.203 81,106.203 27.6,0 49.2,-13.196 60.6,-31.797 9.6,-15.598 15.6,-38.399 15.6,-74.406 h -157.2" /><path
         id="path16"
         style="fill:#d3d2d2;fill-opacity:1;fill-rule:nonzero;stroke:none"
         d="m 1263.81,566.934 h 226.77 v 85.039 h -226.77 v -85.039" /><path
         id="path18"
         style="fill:#b9b7b8;fill-opacity:1;fill-rule:nonzero;stroke:none"
         d="m 1263.81,453.535 h 226.77 v 85.051 h -226.77 v -85.051" /><path
         id="path20"
         style="fill:#9e9c9d;fill-opacity:1;fill-rule:nonzero;stroke:none"
         d="m 1263.81,340.156 h 226.77 v 85.039 h -226.77 v -85.039" /><path
         id="path22"
         style="fill:#848182;fill-opacity:1;fill-rule:nonzero;stroke:none"
         d="m 1263.81,226.777 h 226.77 v 85.039 h -226.77 v -85.039" /><path
         id="path24"
         style="fill:#696767;fill-opacity:1;fill-rule:nonzero;stroke:none"
         d="m 1263.81,113.391 h 226.77 v 85.039 h -226.77 v -85.039" /><path
         id="path26"
         style="fill:#4f4c4c;fill-opacity:1;fill-rule:nonzero;stroke:none"
         d="m 1263.82,0 h 226.77 V 85.0391 H 1263.82 V 0" /></g></g></svg>